<svg width="40" height="40" viewBox="0 0 40 40" fill="none" xmlns="http://www.w3.org/2000/svg">
<path d="M20.0013 30.0013C14.4785 30.0013 10.0013 25.5241 10.0013 20.0012C10.0013 14.4784 14.4785 10.0013 20.0013 10.0013C25.5241 10.0013 30.0013 14.4784 30.0013 20.0012C30.0013 25.5241 25.5241 30.0013 20.0013 30.0013ZM18.3346 3.33463C18.3346 2.41416 19.0808 1.66797 20.0013 1.66797C20.9218 1.66797 21.668 2.41416 21.668 3.33463V5.0013C21.668 5.92177 20.9218 6.66797 20.0013 6.66797C19.0808 6.66797 18.3346 5.92177 18.3346 5.0013V3.33463ZM18.3346 35.0014C18.3346 34.0809 19.0808 33.3346 20.0013 33.3346C20.9218 33.3346 21.668 34.0809 21.668 35.0014V36.6679C21.668 37.5884 20.9218 38.3346 20.0013 38.3346C19.0808 38.3346 18.3346 37.5884 18.3346 36.6679V35.0014ZM7.03768 9.39469C6.38681 8.74382 6.3868 7.68855 7.03768 7.03767C7.68855 6.3868 8.74382 6.3868 9.39469 7.03767L10.5732 8.21619C11.2241 8.86706 11.2241 9.92234 10.5732 10.5732C9.92234 11.224 8.86707 11.224 8.21619 10.5732L7.03768 9.39469ZM29.4294 31.7865C28.7785 31.1356 28.7785 30.0802 29.4294 29.4293C30.0803 28.7784 31.1356 28.7784 31.7865 29.4294L32.965 30.608C33.6159 31.2589 33.6158 32.3141 32.965 32.965C32.3141 33.6159 31.2588 33.6159 30.6079 32.965L29.4294 31.7865ZM30.6079 7.03764C31.2588 6.38679 32.3141 6.3868 32.965 7.03767C33.6158 7.68855 33.6158 8.74382 32.965 9.3947L31.7865 10.5732C31.1356 11.224 30.0803 11.2241 29.4294 10.5732C28.7785 9.92237 28.7785 8.86703 29.4294 8.21613L30.6079 7.03764ZM8.21613 29.4294C8.86703 28.7784 9.92237 28.7784 10.5733 29.4294C11.2241 30.0803 11.2241 31.1355 10.5732 31.7864L9.3947 32.965C8.74382 33.6159 7.68855 33.6159 7.03767 32.965C6.3868 32.3141 6.38679 31.2589 7.03765 30.608L8.21613 29.4294ZM36.668 18.3347C37.5884 18.3347 38.3346 19.0808 38.3346 20.0012C38.3346 20.9217 37.5884 21.6679 36.668 21.6679H35.0013C34.0808 21.6679 33.3346 20.9217 33.3346 20.0012C33.3346 19.0808 34.0808 18.3347 35.0013 18.3347H36.668ZM5.0013 18.3347C5.92178 18.3347 6.66797 19.0808 6.66797 20.0012C6.66797 20.9217 5.92178 21.6679 5.0013 21.6679H3.33464C2.41416 21.6679 1.66797 20.9217 1.66797 20.0012C1.66797 19.0808 2.41416 18.3347 3.33464 18.3347H5.0013Z" fill="#FFBF37"/>
</svg>
