<svg width="40" height="40" viewBox="0 0 40 40" fill="none" xmlns="http://www.w3.org/2000/svg">
<path d="M20.0013 29.9994C14.4785 29.9994 10.0013 25.5222 10.0013 19.9993C10.0013 14.4765 14.4785 9.99935 20.0013 9.99935C25.5241 9.99935 30.0013 14.4765 30.0013 19.9993C30.0013 25.5222 25.5241 29.9994 20.0013 29.9994ZM18.3346 3.33268C18.3346 2.41221 19.0808 1.66602 20.0013 1.66602V1.66602C20.9218 1.66602 21.668 2.41221 21.668 3.33268V4.99935C21.668 5.91982 20.9218 6.66602 20.0013 6.66602V6.66602C19.0808 6.66602 18.3346 5.91982 18.3346 4.99935V3.33268ZM18.3346 34.9994C18.3346 34.0789 19.0808 33.3327 20.0013 33.3327V33.3327C20.9218 33.3327 21.668 34.0789 21.668 34.9994V36.666C21.668 37.5865 20.9218 38.3327 20.0013 38.3327V38.3327C19.0808 38.3327 18.3346 37.5865 18.3346 36.666V34.9994ZM7.03768 9.39274C6.38681 8.74187 6.3868 7.6866 7.03768 7.03572V7.03572C7.68855 6.38485 8.74382 6.38485 9.39469 7.03572L10.5732 8.21424C11.2241 8.86511 11.2241 9.92039 10.5732 10.5713V10.5713C9.92234 11.2221 8.86707 11.2221 8.21619 10.5713L7.03768 9.39274ZM29.4294 31.7846C28.7785 31.1337 28.7785 30.0783 29.4294 29.4274V29.4274C30.0803 28.7765 31.1356 28.7765 31.7865 29.4275L32.965 30.606C33.6159 31.2569 33.6158 32.3121 32.965 32.963V32.963C32.3141 33.6139 31.2588 33.6139 30.6079 32.963L29.4294 31.7846ZM30.6079 7.03569C31.2588 6.38484 32.3141 6.38485 32.965 7.03572V7.03572C33.6158 7.6866 33.6158 8.74187 32.965 9.39275L31.7865 10.5713C31.1356 11.2221 30.0803 11.2222 29.4294 10.5713V10.5713C28.7785 9.92042 28.7785 8.86508 29.4294 8.21418L30.6079 7.03569ZM8.21613 29.4275C8.86703 28.7765 9.92237 28.7765 10.5733 29.4275V29.4275C11.2241 30.0784 11.2241 31.1336 10.5732 31.7845L9.3947 32.963C8.74382 33.6139 7.68855 33.6139 7.03767 32.963V32.963C6.3868 32.3121 6.38679 31.2569 7.03765 30.606L8.21613 29.4275ZM36.668 18.3327C37.5884 18.3327 38.3346 19.0789 38.3346 19.9993V19.9993C38.3346 20.9198 37.5884 21.666 36.668 21.666H35.0013C34.0808 21.666 33.3346 20.9198 33.3346 19.9993V19.9993C33.3346 19.0789 34.0808 18.3327 35.0013 18.3327H36.668ZM5.0013 18.3327C5.92178 18.3327 6.66797 19.0789 6.66797 19.9993V19.9993C6.66797 20.9198 5.92178 21.666 5.0013 21.666H3.33464C2.41416 21.666 1.66797 20.9198 1.66797 19.9993V19.9993C1.66797 19.0789 2.41416 18.3327 3.33464 18.3327H5.0013Z" fill="#FFC549"/>
</svg>
